<svg width="50" height="50" viewBox="0 0 50 50" fill="none" xmlns="http://www.w3.org/2000/svg">
<g filter="url(#filter0_ii)">
<path d="M0 2C0 0.895432 0.89543 0 2 0H48C49.1046 0 50 0.89543 50 2V48C50 49.1046 49.1046 50 48 50H2C0.895432 50 0 49.1046 0 48V2Z" fill="#49B3FF"/>
</g>
<g filter="url(#filter1_d)">
<path d="M31.7077 37.7012L30.6392 37.9311L24.7033 21.1494L20.0733 34.2529C19.6776 34.3678 19.0642 34.9234 18.2332 35.9196C17.4022 36.9157 16.9866 37.5096 16.9866 37.7012L15.9182 37.9311L7.48922 14.5977C7.13307 13.7165 6.73734 13.0843 6.30204 12.7012C5.90632 12.2797 5.27316 12.069 4.40256 12.069H3.57153V10.3448H14.731L14.6123 12.069C13.0294 12.069 12.2379 12.5288 12.2379 13.4483C12.2379 13.7548 12.3962 14.3678 12.7128 15.2874L18.4113 30.9196L23.2787 17.2414L22.2102 14.5977C21.5375 12.9119 20.6669 12.069 19.5984 12.069V10.3448H30.1643V12.069H29.6895C27.9483 12.069 27.0777 12.5288 27.0777 13.4483C27.0777 13.6016 27.1964 14.023 27.4338 14.7127L33.1323 30.9196L38.9495 14.4828C39.266 13.7548 39.4243 13.2376 39.4243 12.9311C39.4243 12.5862 39.2067 12.3563 38.7714 12.2414C38.3756 12.1265 37.4457 12.069 35.9815 12.069H35.2692V10.3448H46.4287V12.069H45.8351C44.5292 12.069 43.619 12.2606 43.1046 12.6437C42.5901 13.0268 42.1548 13.7548 41.7987 14.8276L34.913 34.2529C34.5569 34.2529 33.9237 34.7893 33.0136 35.8621C32.143 36.8966 31.7077 37.5096 31.7077 37.7012Z" fill="white"/>
</g>
<defs>
<filter id="filter0_ii" x="0" y="0" width="50" height="50" filterUnits="userSpaceOnUse" color-interpolation-filters="sRGB">
<feFlood flood-opacity="0" result="BackgroundImageFix"/>
<feBlend mode="normal" in="SourceGraphic" in2="BackgroundImageFix" result="shape"/>
<feColorMatrix in="SourceAlpha" type="matrix" values="0 0 0 0 0 0 0 0 0 0 0 0 0 0 0 0 0 0 127 0" result="hardAlpha"/>
<feOffset dx="1" dy="1"/>
<feComposite in2="hardAlpha" operator="arithmetic" k2="-1" k3="1"/>
<feColorMatrix type="matrix" values="0 0 0 0 0.958333 0 0 0 0 0.958333 0 0 0 0 0.958333 0 0 0 0.42 0"/>
<feBlend mode="normal" in2="shape" result="effect1_innerShadow"/>
<feColorMatrix in="SourceAlpha" type="matrix" values="0 0 0 0 0 0 0 0 0 0 0 0 0 0 0 0 0 0 127 0" result="hardAlpha"/>
<feOffset dx="-1" dy="-1"/>
<feComposite in2="hardAlpha" operator="arithmetic" k2="-1" k3="1"/>
<feColorMatrix type="matrix" values="0 0 0 0 0 0 0 0 0 0 0 0 0 0 0 0 0 0 0.48 0"/>
<feBlend mode="normal" in2="effect1_innerShadow" result="effect2_innerShadow"/>
</filter>
<filter id="filter1_d" x="3.57153" y="10.3448" width="43.3571" height="29.0862" filterUnits="userSpaceOnUse" color-interpolation-filters="sRGB">
<feFlood flood-opacity="0" result="BackgroundImageFix"/>
<feColorMatrix in="SourceAlpha" type="matrix" values="0 0 0 0 0 0 0 0 0 0 0 0 0 0 0 0 0 0 127 0"/>
<feOffset dx="0.5" dy="1.5"/>
<feColorMatrix type="matrix" values="0 0 0 0 0 0 0 0 0 0 0 0 0 0 0 0 0 0 0.25 0"/>
<feBlend mode="normal" in2="BackgroundImageFix" result="effect1_dropShadow"/>
<feBlend mode="normal" in="SourceGraphic" in2="effect1_dropShadow" result="shape"/>
</filter>
</defs>
</svg>
